<svg width="82" height="76" viewBox="0 0 82 76" fill="none" xmlns="http://www.w3.org/2000/svg">
<path d="M36.435 68.3071L36.4321 68.3044C25.8343 58.6943 17.2027 50.8534 11.1966 43.5054C5.21307 36.1849 2.05 29.6045 2.05 22.55C2.05 11.0156 11.0517 2.05 22.55 2.05C29.0643 2.05 35.3505 5.09314 39.4444 9.86313L41 11.6756L42.5556 9.86313C46.6495 5.09314 52.9357 2.05 59.45 2.05C70.9483 2.05 79.95 11.0156 79.95 22.55C79.95 29.6045 76.7869 36.1849 70.8034 43.5054C64.7973 50.8534 56.1657 58.6943 45.5679 68.3044L45.565 68.3071L41 72.4628L36.435 68.3071Z" stroke="white" stroke-width="4.1"/>
</svg>
