<svg width="35" height="50" viewBox="0 0 35 50" fill="none" xmlns="http://www.w3.org/2000/svg">
<path d="M17.3273 23.5156C15.686 23.5156 14.112 22.8636 12.9515 21.7031C11.7909 20.5425 11.139 18.9685 11.139 17.3273C11.139 15.686 11.7909 14.112 12.9515 12.9515C14.112 11.7909 15.686 11.139 17.3273 11.139C18.9685 11.139 20.5425 11.7909 21.7031 12.9515C22.8636 14.112 23.5156 15.686 23.5156 17.3273C23.5156 18.1399 23.3555 18.9446 23.0445 19.6954C22.7336 20.4462 22.2777 21.1284 21.7031 21.7031C21.1284 22.2777 20.4463 22.7335 19.6955 23.0445C18.9446 23.3555 18.1399 23.5156 17.3273 23.5156ZM17.3273 0C12.7318 0 8.32454 1.82555 5.07504 5.07504C1.82555 8.32454 0 12.7318 0 17.3273C0 30.3227 17.3273 49.5065 17.3273 49.5065C17.3273 49.5065 34.6546 30.3227 34.6546 17.3273C34.6546 12.7318 32.829 8.32454 29.5795 5.07504C26.33 1.82555 21.9228 0 17.3273 0Z" fill="#FF7700"/>
</svg>
