<svg width="51" height="41" viewBox="0 0 51 41" fill="none" xmlns="http://www.w3.org/2000/svg">
<path d="M3.00001 7.95065C3.00001 6.63766 3.52159 5.37844 4.45002 4.45001C5.37845 3.52158 6.63767 3 7.95066 3H42.6052C43.9182 3 45.1774 3.52158 46.1059 4.45001C47.0343 5.37844 47.5559 6.63766 47.5559 7.95065V32.7039C47.5559 34.0169 47.0343 35.2761 46.1059 36.2046C45.1774 37.133 43.9182 37.6546 42.6052 37.6546H7.95066C6.63767 37.6546 5.37845 37.133 4.45002 36.2046C3.52159 35.2761 3.00001 34.0169 3.00001 32.7039V7.95065Z" stroke="#FF7700" stroke-width="4.95065" stroke-linecap="round" stroke-linejoin="round"/>
<path d="M2.99998 7.95068L25.2779 22.8026L47.5559 7.95068" stroke="#FF7700" stroke-width="4.95065" stroke-linecap="round" stroke-linejoin="round"/>
</svg>
