<svg width="45" height="45" viewBox="0 0 45 45" fill="none" xmlns="http://www.w3.org/2000/svg">
<path d="M41.9568 44.5559C36.7998 44.5559 31.6949 43.442 26.6419 41.2142C21.589 38.9864 16.9989 35.8097 12.8717 31.6842C8.7445 27.5586 5.56783 22.9793 3.34169 17.9461C1.11555 12.913 0.00165022 7.79728 0 2.59909V0H14.6044L16.8941 12.4385L9.83942 19.5551C10.747 21.164 11.7578 22.6905 12.8717 24.1344C13.9856 25.5784 15.182 26.9192 16.4609 28.1568C17.6573 29.3532 18.9676 30.4985 20.3917 31.5926C21.8159 32.6867 23.3522 33.7073 25.0008 34.6546L32.1792 27.4761L44.5559 30.0133V44.5559H41.9568Z" fill="#FF7700"/>
</svg>
