<svg width="97" height="97" viewBox="0 0 97 97" fill="none" xmlns="http://www.w3.org/2000/svg">
<path d="M89.75 48.9167H93.8333M48.9167 8.08333V4M48.9167 93.8333V89.75M81.5833 81.5833L77.5 77.5M81.5833 16.25L77.5 20.3333M16.25 81.5833L20.3333 77.5M16.25 16.25L20.3333 20.3333M4 48.9167H8.08333M48.9167 73.4167C55.4145 73.4167 61.6461 70.8354 66.2408 66.2408C70.8354 61.6461 73.4167 55.4145 73.4167 48.9167C73.4167 42.4189 70.8354 36.1872 66.2408 31.5926C61.6461 26.9979 55.4145 24.4167 48.9167 24.4167C42.4189 24.4167 36.1872 26.9979 31.5926 31.5926C26.9979 36.1872 24.4167 42.4189 24.4167 48.9167C24.4167 55.4145 26.9979 61.6461 31.5926 66.2408C36.1872 70.8354 42.4189 73.4167 48.9167 73.4167Z" stroke="white" stroke-width="6.125" stroke-linecap="round" stroke-linejoin="round"/>
</svg>
